<?xml version="1.0" encoding="utf-8"?>
<!-- Generator: Adobe Illustrator 19.1.0, SVG Export Plug-In . SVG Version: 6.00 Build 0)  -->
<svg version="1.1"
	 id="Camada_1" xmlns:dc="http://purl.org/dc/elements/1.1/" xmlns:cc="http://creativecommons.org/ns#" xmlns:rdf="http://www.w3.org/1999/02/22-rdf-syntax-ns#" xmlns:svg="http://www.w3.org/2000/svg"
	 xmlns="http://www.w3.org/2000/svg" xmlns:xlink="http://www.w3.org/1999/xlink" x="0px" y="0px" viewBox="104 264 819.2 266"
	 style="enable-background:new 104 264 819.2 266;" xml:space="preserve" width="246" height="84">
<style type="text/css">
	.st0{fill:url(#SVGID_1_);stroke:#2E8BB9;stroke-miterlimit:10;}
</style>
<title>Central Brasileira de Notícias (CBN)</title>
<g transform="translate(137.57723,-317.65419)">
	<linearGradient id="SVGID_1_" gradientUnits="userSpaceOnUse" x1="376.0228" y1="847.6542" x2="376.0228" y2="581.6221">
		<stop  offset="0" style="stop-color:#2E8BB9"/>
		<stop  offset="1" style="stop-color:#4BB791"/>
	</linearGradient>
	<path class="st0" d="M126.1,581.6c-24.6,0-46.8,4.5-66.5,13.5c-19.7,9-36.5,20.8-50.2,35.3c-13.8,14.5-24.4,31-31.8,49.4
		c-7.4,18.4-11.1,37.1-11.1,56.1c0,17,3,32.5,9,46.2c6,13.8,14.3,25.5,25,35.3s23.4,17.2,38.2,22.5c14.7,5.2,31,7.8,48.8,7.8
		c24.4,0,45.2-4.4,62.5-13.3c17.3-8.9,32.2-20.4,44.6-34.5l-47.9-42.4c-8.3,8.3-16.7,14.7-25.2,19.2c-8.5,4.5-18.4,6.8-29.6,6.8
		c-14.9,0-27.1-4.7-36.7-14.1c-9.6-9.4-14.4-22.2-14.4-38.6c0-11.2,2-21.9,6-32c4-10.1,9.4-19,16.3-26.8c6.8-7.8,14.9-14,24.1-18.7
		c9.2-4.6,19.2-6.9,30-6.9c12.7,0,23.1,2.9,31.4,8.6c8.3,5.7,15,13.8,20.1,24.3l61.4-32.9c-7.8-19.7-20.5-35.4-38-47.1
		C174.4,587.5,152.4,581.6,126.1,581.6z M277.8,586.7l-68.7,255.8h132.7c19.7,0,36.9-2,51.5-6c14.6-4,26.7-9.5,36.4-16.4
		c9.6-6.9,16.8-15.2,21.4-24.7c4.6-9.5,6.9-19.7,6.9-30.7c0-13.1-3.6-23.9-10.8-32.3c-7.2-8.4-16.5-14.7-27.9-18.8
		c18-4.4,32.1-12.3,42.2-23.8c10.1-11.5,15.2-25.3,15.2-41.7c0-8-1.5-15.8-4.6-23.2c-3-7.4-8.2-14-15.3-19.7
		c-7.2-5.7-16.7-10.2-28.5-13.5c-11.8-3.3-26.5-4.9-44-4.9L277.8,586.7L277.8,586.7z M544.4,586.7l-68.7,255.8h70.5l39.5-147.3
		l69.1,147.3h62.1l68.7-255.8h-70.5l-38.4,142.2l-66.1-142.2H544.4L544.4,586.7z M332.1,641.5h44.2c26.5,0,30.1,13.3,30.1,21.5
		c0,6.7-1.5,27.3-38.8,27.3h-47.9L332.1,641.5L332.1,641.5z M307.7,732.6h49c20.9,0,30.2,11.6,30.2,24.9c0,8-5,31.1-40.1,31.1h-53.7
		L307.7,732.6L307.7,732.6z"/>
</g>
<text transform="matrix(1 0 0 1 410 659.9679)" style="font-family:'MyriadPro-Regular'; font-size:12px;">images/GuideLife_Logo.svg</text>
</svg>
