<svg id="Layer_1" data-name="Layer 1" xmlns="http://www.w3.org/2000/svg" viewBox="0 0 931.64 208.49"><defs><style>.cls-1{fill:#f0cf61;}.cls-2{fill:#4a6c9f;}</style></defs><title>GuideLife_Logo</title><path class="cls-1" d="M167.49,234C234.83,234,303,216.13,303,182V133.38H280.85c0,10.51-43,29.83-113.36,29.83S54.13,143.89,54.13,133.38v-48c0-10.52,43-29.83,113.36-29.83S280.85,74.87,280.85,85.39s-43,29.83-113.36,29.83c-32.89,0-64.54-4.45-86.83-12.21l-7.28,20.91c24.89,8.67,58.32,13.44,94.11,13.44,67.34,0,135.51-17.85,135.51-52s-68.17-52-135.51-52S32,51.27,32,85.39v48c0,34.12,68.17,52,135.51,52,43.74,0,87.83-7.54,113.36-22.16V182c0,10.52-43,29.83-113.36,29.83S54.13,192.53,54.13,182H32S32.45,234,167.49,234Z" transform="translate(-31.98 -25.49)"/><path class="cls-2" d="M311.57,35.8a10,10,0,0,1-3,7.32,10.29,10.29,0,0,1-14.57,0,10,10,0,0,1-3-7.34,9.71,9.71,0,0,1,1-4.36,10.12,10.12,0,0,1,2.75-3.54,9.89,9.89,0,0,1,6.46-2.38,10.09,10.09,0,0,1,4.31.9,9.86,9.86,0,0,1,4.41,3.79A10.17,10.17,0,0,1,311.57,35.8ZM301.21,27a8.13,8.13,0,0,0-6,2.6,8.59,8.59,0,0,0-2.53,6.2,8.69,8.69,0,0,0,2.53,6.27,8.49,8.49,0,0,0,12.21,0,8.67,8.67,0,0,0,2.52-6.27,9.45,9.45,0,0,0-1-4.06,8.22,8.22,0,0,0-2.59-3.12A8.56,8.56,0,0,0,301.21,27Zm1.08,9.8,3.87,5h-2.78l-3.53-4.71v4.71h-2.28V29.88H300a6,6,0,0,1,3.64.89,3.27,3.27,0,0,1,1.27,2.69,3.49,3.49,0,0,1-.68,2.07,3.24,3.24,0,0,1-1.74,1.23Zm-2.45-1.64h.39q2.44,0,2.44-1.68t-2.37-1.57h-.46Z" transform="translate(-31.98 -25.49)"/><path class="cls-2" d="M403.51,179.08a45,45,0,0,1-8.45,3.72,42.85,42.85,0,0,1-14.62,2.27,46.91,46.91,0,0,1-16.07-2.72,34.86,34.86,0,0,1-13.17-8.45,40.8,40.8,0,0,1-8.9-14.26A56.87,56.87,0,0,1,339,139.3a55.93,55.93,0,0,1,3.09-19,42.14,42.14,0,0,1,9-14.89,41.22,41.22,0,0,1,14.44-9.81,49.82,49.82,0,0,1,19.25-3.54,108.54,108.54,0,0,1,20.61,1.73q8.81,1.73,14.8,3.18V188q0,21.79-11.26,31.6t-34.15,9.81A92.91,92.91,0,0,1,358,228a96.14,96.14,0,0,1-13.71-3.45l3.09-14.71a78.92,78.92,0,0,0,12.44,3.54,74.6,74.6,0,0,0,15.35,1.54q15.07,0,21.7-6t6.63-19.07ZM403.32,109a56,56,0,0,0-6.81-1.36A82,82,0,0,0,385,107q-13.62,0-21,8.9t-7.36,23.61a41.45,41.45,0,0,0,2.09,14,27.66,27.66,0,0,0,5.63,9.63,22,22,0,0,0,8.17,5.63,25.88,25.88,0,0,0,9.54,1.82,38.27,38.27,0,0,0,12.35-1.91,30.32,30.32,0,0,0,8.9-4.45Z" transform="translate(-31.98 -25.49)"/><path class="cls-2" d="M513.57,185.8q-5.81,1.45-15.35,3.09a131.89,131.89,0,0,1-22.07,1.64q-10.9,0-18.34-3.18a29.56,29.56,0,0,1-12-9,36.48,36.48,0,0,1-6.54-13.71,71.42,71.42,0,0,1-2-17.53v-53h16.89v49.4q0,17.26,5.45,24.7T478,175.63q2.72,0,5.63-.18T489,175q2.54-.27,4.63-.55a13.58,13.58,0,0,0,3-.63V94.08h16.89Z" transform="translate(-31.98 -25.49)"/><path class="cls-2" d="M540.08,77a10.83,10.83,0,0,1-7.72-3,10.58,10.58,0,0,1-3.18-8.08,10.58,10.58,0,0,1,3.18-8.08,11.44,11.44,0,0,1,15.44,0A10.59,10.59,0,0,1,551,65.93,10.59,10.59,0,0,1,547.8,74,10.85,10.85,0,0,1,540.08,77Zm8.54,111.52H531.73V94.08h16.89Z" transform="translate(-31.98 -25.49)"/><path class="cls-2" d="M627.81,50.49l16.89-2.91V185.8q-5.81,1.63-14.89,3.27a118.93,118.93,0,0,1-20.89,1.63,53,53,0,0,1-19.62-3.45,41.92,41.92,0,0,1-14.89-9.81,43.29,43.29,0,0,1-9.54-15.53,59.56,59.56,0,0,1-3.36-20.61,67.18,67.18,0,0,1,2.82-20,44.8,44.8,0,0,1,8.26-15.62,37.56,37.56,0,0,1,13.35-10.17A42.81,42.81,0,0,1,604,91.9a43.89,43.89,0,0,1,14.44,2.18,45.63,45.63,0,0,1,9.35,4.18Zm0,63.57a34.83,34.83,0,0,0-8.9-4.9,33.5,33.5,0,0,0-12.71-2.36,27.16,27.16,0,0,0-12.44,2.63,22.83,22.83,0,0,0-8.45,7.27,30.67,30.67,0,0,0-4.72,11,61,61,0,0,0-1.45,13.62q0,16.53,8.17,25.52t21.8,9a86.78,86.78,0,0,0,11.53-.63,54.55,54.55,0,0,0,7.17-1.36Z" transform="translate(-31.98 -25.49)"/><path class="cls-2" d="M657.59,141.49a60.29,60.29,0,0,1,3.63-21.89,45.74,45.74,0,0,1,9.63-15.53,39.13,39.13,0,0,1,13.8-9.26,43.14,43.14,0,0,1,16-3.09q19.07,0,29.24,11.9t10.17,36.24v2.82a26.09,26.09,0,0,1-.18,3.18H675.21q1.09,14.71,8.54,22.34T707,175.81a61.94,61.94,0,0,0,15-1.54,53.81,53.81,0,0,0,9.17-3l2.36,14.17q-3.09,1.63-10.81,3.45a76.93,76.93,0,0,1-17.53,1.82q-12.35,0-21.34-3.72A39.78,39.78,0,0,1,669,176.72a41.83,41.83,0,0,1-8.63-15.53A65.57,65.57,0,0,1,657.59,141.49Zm64.84-9.26q.18-11.44-5.72-18.8t-16.25-7.36a22.28,22.28,0,0,0-10.26,2.27,24.23,24.23,0,0,0-7.54,5.9,27.19,27.19,0,0,0-4.81,8.36,41,41,0,0,0-2.27,9.63Z" transform="translate(-31.98 -25.49)"/><path class="cls-2" d="M781.83,190.34q-15.62-.36-22.16-6.72t-6.54-19.8V50.49L770,47.58V161.1a27.29,27.29,0,0,0,.73,6.9,9.46,9.46,0,0,0,2.36,4.36,10.14,10.14,0,0,0,4.36,2.45,44.87,44.87,0,0,0,6.72,1.36Z" transform="translate(-31.98 -25.49)"/><path class="cls-2" d="M800.53,77a10.84,10.84,0,0,1-7.72-3,10.58,10.58,0,0,1-3.18-8.08,10.57,10.57,0,0,1,3.18-8.08,11.44,11.44,0,0,1,15.44,0,10.58,10.58,0,0,1,3.18,8.08A10.59,10.59,0,0,1,808.25,74,10.84,10.84,0,0,1,800.53,77Zm8.54,111.52H792.18V94.08h16.89Z" transform="translate(-31.98 -25.49)"/><path class="cls-2" d="M864.1,47.58a65.08,65.08,0,0,1,12.8,1.09,45.85,45.85,0,0,1,7.54,2L881.35,65.2a31.32,31.32,0,0,0-6.17-2.09,41.19,41.19,0,0,0-9.81-1q-11.81,0-16.53,6.45t-4.72,17.35v8.17h36.32v14.17H844.12v80.28H827.23v-103q0-18.16,8.9-28.06T864.1,47.58Z" transform="translate(-31.98 -25.49)"/><path class="cls-2" d="M881.17,141.49a60.27,60.27,0,0,1,3.63-21.89,45.73,45.73,0,0,1,9.63-15.53,39.15,39.15,0,0,1,13.8-9.26,43.16,43.16,0,0,1,16-3.09q19.07,0,29.24,11.9t10.17,36.24v2.82a26.71,26.71,0,0,1-.18,3.18H898.79q1.09,14.71,8.54,22.34t23.25,7.63a61.92,61.92,0,0,0,15-1.54,53.78,53.78,0,0,0,9.17-3l2.36,14.17q-3.09,1.63-10.81,3.45a76.94,76.94,0,0,1-17.53,1.82q-12.35,0-21.34-3.72a39.76,39.76,0,0,1-14.8-10.26A41.84,41.84,0,0,1,884,161.19,65.57,65.57,0,0,1,881.17,141.49ZM946,132.22q.18-11.44-5.72-18.8T924,106.07a22.28,22.28,0,0,0-10.26,2.27,24.22,24.22,0,0,0-7.54,5.9,27.19,27.19,0,0,0-4.81,8.36,41.09,41.09,0,0,0-2.27,9.63Z" transform="translate(-31.98 -25.49)"/><path class="cls-2" d="M439.28,221.57V227h-2V213.7h2.27a10.33,10.33,0,0,1,2.51.23,3.38,3.38,0,0,1,1.51.88,3.77,3.77,0,0,1,1.14,2.81,3.63,3.63,0,0,1-1.22,2.88,4.83,4.83,0,0,1-3.29,1.07Zm0-1.86H440q2.76,0,2.76-2.12t-2.84-2.05h-.66Z" transform="translate(-31.98 -25.49)"/><path class="cls-2" d="M461.08,213.7v11.37H465V227h-5.89V213.7Z" transform="translate(-31.98 -25.49)"/><path class="cls-2" d="M487.7,223.73H482L480.55,227H478.4L485,212.87,491.28,227h-2.19Zm-.82-1.88-2-4.51-2.06,4.51Z" transform="translate(-31.98 -25.49)"/><path class="cls-2" d="M505.24,227V212.8l9.66,10.11V213.7h2v14.06l-9.66-10.08V227Z" transform="translate(-31.98 -25.49)"/><path class="cls-2" d="M539.69,215.58h-5.31v3.18h5.16v1.88h-5.16v4.43h5.31V227h-7.31V213.7h7.31Z" transform="translate(-31.98 -25.49)"/><path class="cls-2" d="M558.66,213.7v8.58a9.06,9.06,0,0,1-.21,2.29,3.47,3.47,0,0,1-.73,1.45,3.33,3.33,0,0,1-2.66,1.17,4.47,4.47,0,0,1-2.34-.65l1-1.71a2.49,2.49,0,0,0,1.36.49,1.26,1.26,0,0,0,1.24-.68,5.5,5.5,0,0,0,.36-2.37V213.7Z" transform="translate(-31.98 -25.49)"/><path class="cls-2" d="M581.47,223.73h-5.67L574.32,227h-2.15l6.56-14.08L585,227h-2.19Zm-.82-1.88-2-4.51-2.06,4.51Z" transform="translate(-31.98 -25.49)"/><path class="cls-2" d="M598.54,227l2.79-14.25,4.55,10.3,4.71-10.3L613.1,227H611l-1.28-8-3.92,8.61L602,218.94l-1.42,8Z" transform="translate(-31.98 -25.49)"/><path class="cls-2" d="M635.52,215.58h-5.31v3.18h5.16v1.88h-5.16v4.43h5.31V227h-7.31V213.7h7.31Z" transform="translate(-31.98 -25.49)"/><path class="cls-2" d="M650.45,227V212.8l9.66,10.11V213.7h2v14.06l-9.67-10.08V227Z" transform="translate(-31.98 -25.49)"/><path class="cls-2" d="M681.25,215.58V227h-2V215.58h-3V213.7h8.09v1.88Z" transform="translate(-31.98 -25.49)"/><path class="cls-2" d="M697.3,220.27a6.48,6.48,0,0,1,2-4.81,6.75,6.75,0,0,1,4.91-2,6.93,6.93,0,0,1,6.89,6.89,6.52,6.52,0,0,1-2,4.85,7,7,0,0,1-9.56.22A6.51,6.51,0,0,1,697.3,220.27Zm2,0a4.8,4.8,0,0,0,1.48,3.61,4.89,4.89,0,0,0,6.91,0,5.14,5.14,0,0,0,0-7.11,4.66,4.66,0,0,0-3.48-1.44,4.73,4.73,0,0,0-3.5,1.44A4.79,4.79,0,0,0,699.31,220.29Z" transform="translate(-31.98 -25.49)"/><path class="cls-2" d="M750.31,215.58h-4.62v3.18h4.45v1.88h-4.45V227h-2V213.7h6.62Z" transform="translate(-31.98 -25.49)"/><path class="cls-2" d="M766.93,213.7V227h-2V213.7Z" transform="translate(-31.98 -25.49)"/><path class="cls-2" d="M782.42,227V212.8l9.67,10.11V213.7h2v14.06l-9.66-10.08V227Z" transform="translate(-31.98 -25.49)"/><path class="cls-2" d="M817.45,223.73h-5.68L810.3,227h-2.15l6.56-14.08L821,227h-2.19Zm-.82-1.88-2-4.51-2.06,4.51Z" transform="translate(-31.98 -25.49)"/><path class="cls-2" d="M835,227V212.8l9.66,10.11V213.7h2v14.06L837,217.68V227Z" transform="translate(-31.98 -25.49)"/><path class="cls-2" d="M872,214.41v2.37a5.55,5.55,0,0,0-3.59-1.45A4.56,4.56,0,0,0,865,216.8a5,5,0,0,0-1.41,3.57,4.84,4.84,0,0,0,1.41,3.52,4.67,4.67,0,0,0,3.45,1.43,4.24,4.24,0,0,0,1.79-.34,5.12,5.12,0,0,0,.86-.46,10.75,10.75,0,0,0,.93-.7v2.41a7.23,7.23,0,0,1-3.6,1,6.64,6.64,0,0,1-4.85-2,6.56,6.56,0,0,1-2-4.82,6.81,6.81,0,0,1,1.67-4.52,6.67,6.67,0,0,1,5.33-2.43A6.76,6.76,0,0,1,872,214.41Z" transform="translate(-31.98 -25.49)"/><path class="cls-2" d="M894.18,215.58h-5.31v3.18H894v1.88h-5.16v4.43h5.31V227h-7.31V213.7h7.31Z" transform="translate(-31.98 -25.49)"/><path class="cls-2" d="M911.11,213.7V227h-2V213.7Z" transform="translate(-31.98 -25.49)"/><path class="cls-2" d="M931.09,221.31l4.1,5.65h-2.45L929,221.53h-.36V227h-2V213.7h2.34a5.85,5.85,0,0,1,3.79,1,3.62,3.62,0,0,1,1.29,2.9,3.77,3.77,0,0,1-.81,2.42A3.6,3.6,0,0,1,931.09,221.31Zm-2.49-1.52h.63q2.84,0,2.84-2.17t-2.76-2h-.71Z" transform="translate(-31.98 -25.49)"/><path class="cls-2" d="M948.52,220.27a6.49,6.49,0,0,1,2.05-4.81,6.75,6.75,0,0,1,4.91-2,6.93,6.93,0,0,1,6.89,6.89,6.52,6.52,0,0,1-2,4.85,7,7,0,0,1-9.56.22A6.51,6.51,0,0,1,948.52,220.27Zm2,0a4.8,4.8,0,0,0,1.47,3.61,4.89,4.89,0,0,0,6.91,0,5.14,5.14,0,0,0,0-7.11,4.67,4.67,0,0,0-3.48-1.44,4.73,4.73,0,0,0-3.49,1.44A4.78,4.78,0,0,0,950.54,220.29Z" transform="translate(-31.98 -25.49)"/></svg>